<mxfile host="app.diagrams.net" agent="Mozilla/5.0 (X11; Linux x86_64) AppleWebKit/537.36 (KHTML, like Gecko) Chrome/133.0.0.0 Safari/537.36" version="26.1.1" pages="2">
  <diagram name="PÃ¡gina-1" id="9Num4wGWsNrgCqTMlp7d">
    <mxGraphModel dx="2620" dy="2154" grid="1" gridSize="10" guides="1" tooltips="1" connect="1" arrows="1" fold="1" page="1" pageScale="1" pageWidth="827" pageHeight="1169" math="0" shadow="0">
      <root>
        <mxCell id="0" />
        <mxCell id="1" parent="0" />
        <mxCell id="UY8l5aNotNg1YHG4aXhA-20" value="" style="rounded=0;whiteSpace=wrap;html=1;" vertex="1" parent="1">
          <mxGeometry x="710" y="380" width="400" height="221.25" as="geometry" />
        </mxCell>
        <mxCell id="UY8l5aNotNg1YHG4aXhA-13" value="" style="rounded=0;whiteSpace=wrap;html=1;" vertex="1" parent="1">
          <mxGeometry x="200" y="370" width="430" height="221.25" as="geometry" />
        </mxCell>
        <mxCell id="UY8l5aNotNg1YHG4aXhA-22" style="edgeStyle=orthogonalEdgeStyle;rounded=0;orthogonalLoop=1;jettySize=auto;html=1;" edge="1" parent="1" source="UY8l5aNotNg1YHG4aXhA-1" target="UY8l5aNotNg1YHG4aXhA-21">
          <mxGeometry relative="1" as="geometry" />
        </mxCell>
        <mxCell id="UY8l5aNotNg1YHG4aXhA-1" value="CreateAccountController" style="rounded=0;whiteSpace=wrap;html=1;" vertex="1" parent="1">
          <mxGeometry x="424" y="390" width="146" height="70" as="geometry" />
        </mxCell>
        <mxCell id="UY8l5aNotNg1YHG4aXhA-5" value="MongoDB" style="whiteSpace=wrap;html=1;fillColor=#dae8fc;strokeColor=#6c8ebf;" vertex="1" parent="1">
          <mxGeometry x="680" y="-130" width="120" height="60" as="geometry" />
        </mxCell>
        <mxCell id="UY8l5aNotNg1YHG4aXhA-6" value="BCrypt" style="whiteSpace=wrap;html=1;fillColor=#dae8fc;strokeColor=#6c8ebf;" vertex="1" parent="1">
          <mxGeometry x="15" y="-130" width="120" height="60" as="geometry" />
        </mxCell>
        <mxCell id="UY8l5aNotNg1YHG4aXhA-7" value="Validator" style="whiteSpace=wrap;html=1;fillColor=#dae8fc;strokeColor=#6c8ebf;" vertex="1" parent="1">
          <mxGeometry x="-180" y="435" width="120" height="60" as="geometry" />
        </mxCell>
        <mxCell id="UY8l5aNotNg1YHG4aXhA-10" value="InterfaceController" style="rounded=0;whiteSpace=wrap;html=1;dashed=1;" vertex="1" parent="1">
          <mxGeometry x="425" y="492.5" width="145" height="70" as="geometry" />
        </mxCell>
        <mxCell id="UY8l5aNotNg1YHG4aXhA-11" value="Express" style="whiteSpace=wrap;html=1;fillColor=#dae8fc;strokeColor=#6c8ebf;" vertex="1" parent="1">
          <mxGeometry x="417.5" y="740" width="150" height="70" as="geometry" />
        </mxCell>
        <mxCell id="UY8l5aNotNg1YHG4aXhA-15" value="" style="endArrow=classic;html=1;rounded=0;" edge="1" parent="1" source="UY8l5aNotNg1YHG4aXhA-12">
          <mxGeometry width="50" height="50" relative="1" as="geometry">
            <mxPoint x="430.62" y="750" as="sourcePoint" />
            <mxPoint x="430.62" y="680" as="targetPoint" />
          </mxGeometry>
        </mxCell>
        <mxCell id="UY8l5aNotNg1YHG4aXhA-25" style="edgeStyle=orthogonalEdgeStyle;rounded=0;orthogonalLoop=1;jettySize=auto;html=1;entryX=0.5;entryY=1;entryDx=0;entryDy=0;" edge="1" parent="1" source="UY8l5aNotNg1YHG4aXhA-12" target="UY8l5aNotNg1YHG4aXhA-10">
          <mxGeometry relative="1" as="geometry" />
        </mxCell>
        <mxCell id="UY8l5aNotNg1YHG4aXhA-26" style="edgeStyle=orthogonalEdgeStyle;rounded=0;orthogonalLoop=1;jettySize=auto;html=1;" edge="1" parent="1" source="UY8l5aNotNg1YHG4aXhA-12" target="UY8l5aNotNg1YHG4aXhA-11">
          <mxGeometry relative="1" as="geometry" />
        </mxCell>
        <mxCell id="UY8l5aNotNg1YHG4aXhA-12" value="ExpressAdapter" style="rounded=0;whiteSpace=wrap;html=1;fillColor=#d5e8d4;strokeColor=#82b366;" vertex="1" parent="1">
          <mxGeometry x="417.5" y="620" width="148.5" height="70" as="geometry" />
        </mxCell>
        <mxCell id="UY8l5aNotNg1YHG4aXhA-18" value="" style="endArrow=classic;html=1;rounded=0;exitX=0.5;exitY=1;exitDx=0;exitDy=0;entryX=0.5;entryY=0;entryDx=0;entryDy=0;" edge="1" parent="1" source="UY8l5aNotNg1YHG4aXhA-1" target="UY8l5aNotNg1YHG4aXhA-10">
          <mxGeometry width="50" height="50" relative="1" as="geometry">
            <mxPoint x="290" y="520" as="sourcePoint" />
            <mxPoint x="340" y="470" as="targetPoint" />
          </mxGeometry>
        </mxCell>
        <mxCell id="UY8l5aNotNg1YHG4aXhA-21" value="AddAcount" style="rounded=0;whiteSpace=wrap;html=1;dashed=1;" vertex="1" parent="1">
          <mxGeometry x="837" y="445.63" width="146" height="70" as="geometry" />
        </mxCell>
        <mxCell id="UY8l5aNotNg1YHG4aXhA-23" value="Dominio" style="text;html=1;align=center;verticalAlign=middle;whiteSpace=wrap;rounded=0;" vertex="1" parent="1">
          <mxGeometry x="1050" y="350" width="60" height="30" as="geometry" />
        </mxCell>
        <mxCell id="UY8l5aNotNg1YHG4aXhA-24" value="InterfaceEmailValidator" style="rounded=0;whiteSpace=wrap;html=1;dashed=1;" vertex="1" parent="1">
          <mxGeometry x="225" y="390" width="125" height="80" as="geometry" />
        </mxCell>
        <mxCell id="UY8l5aNotNg1YHG4aXhA-29" value="" style="rounded=0;whiteSpace=wrap;html=1;" vertex="1" parent="1">
          <mxGeometry y="420" width="150" height="92.81" as="geometry" />
        </mxCell>
        <mxCell id="UY8l5aNotNg1YHG4aXhA-31" style="edgeStyle=orthogonalEdgeStyle;rounded=0;orthogonalLoop=1;jettySize=auto;html=1;entryX=1;entryY=0.5;entryDx=0;entryDy=0;" edge="1" parent="1" source="UY8l5aNotNg1YHG4aXhA-30" target="UY8l5aNotNg1YHG4aXhA-7">
          <mxGeometry relative="1" as="geometry" />
        </mxCell>
        <mxCell id="UY8l5aNotNg1YHG4aXhA-30" value="EmailValidAdapter" style="rounded=0;whiteSpace=wrap;html=1;" vertex="1" parent="1">
          <mxGeometry x="20" y="437.5" width="110" height="55" as="geometry" />
        </mxCell>
        <mxCell id="UY8l5aNotNg1YHG4aXhA-32" value="Utils" style="text;html=1;align=center;verticalAlign=middle;whiteSpace=wrap;rounded=0;" vertex="1" parent="1">
          <mxGeometry x="90" y="390" width="60" height="30" as="geometry" />
        </mxCell>
        <mxCell id="UY8l5aNotNg1YHG4aXhA-33" value="" style="rounded=0;whiteSpace=wrap;html=1;" vertex="1" parent="1">
          <mxGeometry x="198" y="90" width="430" height="221.25" as="geometry" />
        </mxCell>
        <mxCell id="UY8l5aNotNg1YHG4aXhA-35" style="edgeStyle=orthogonalEdgeStyle;rounded=0;orthogonalLoop=1;jettySize=auto;html=1;entryX=0.5;entryY=0;entryDx=0;entryDy=0;" edge="1" parent="1" source="UY8l5aNotNg1YHG4aXhA-34" target="UY8l5aNotNg1YHG4aXhA-21">
          <mxGeometry relative="1" as="geometry" />
        </mxCell>
        <mxCell id="UY8l5aNotNg1YHG4aXhA-45" style="edgeStyle=orthogonalEdgeStyle;rounded=0;orthogonalLoop=1;jettySize=auto;html=1;entryX=0.5;entryY=1;entryDx=0;entryDy=0;" edge="1" parent="1" source="UY8l5aNotNg1YHG4aXhA-34" target="UY8l5aNotNg1YHG4aXhA-44">
          <mxGeometry relative="1" as="geometry" />
        </mxCell>
        <mxCell id="UY8l5aNotNg1YHG4aXhA-50" style="edgeStyle=orthogonalEdgeStyle;rounded=0;orthogonalLoop=1;jettySize=auto;html=1;" edge="1" parent="1" source="UY8l5aNotNg1YHG4aXhA-34" target="UY8l5aNotNg1YHG4aXhA-48">
          <mxGeometry relative="1" as="geometry" />
        </mxCell>
        <mxCell id="UY8l5aNotNg1YHG4aXhA-34" value="AddAcountDb" style="rounded=0;whiteSpace=wrap;html=1;" vertex="1" parent="1">
          <mxGeometry x="358" y="220" width="110" height="55" as="geometry" />
        </mxCell>
        <mxCell id="UY8l5aNotNg1YHG4aXhA-36" value="" style="rounded=0;whiteSpace=wrap;html=1;" vertex="1" parent="1">
          <mxGeometry x="200" y="-190" width="430" height="221.25" as="geometry" />
        </mxCell>
        <mxCell id="UY8l5aNotNg1YHG4aXhA-37" value="Data" style="text;html=1;align=center;verticalAlign=middle;whiteSpace=wrap;rounded=0;" vertex="1" parent="1">
          <mxGeometry x="560" y="60" width="60" height="30" as="geometry" />
        </mxCell>
        <mxCell id="UY8l5aNotNg1YHG4aXhA-38" value="Infra" style="text;html=1;align=center;verticalAlign=middle;whiteSpace=wrap;rounded=0;" vertex="1" parent="1">
          <mxGeometry x="570" y="-219" width="60" height="30" as="geometry" />
        </mxCell>
        <mxCell id="UY8l5aNotNg1YHG4aXhA-41" style="edgeStyle=orthogonalEdgeStyle;rounded=0;orthogonalLoop=1;jettySize=auto;html=1;" edge="1" parent="1" source="UY8l5aNotNg1YHG4aXhA-39">
          <mxGeometry relative="1" as="geometry">
            <mxPoint x="140" y="-100" as="targetPoint" />
          </mxGeometry>
        </mxCell>
        <mxCell id="UY8l5aNotNg1YHG4aXhA-46" style="edgeStyle=orthogonalEdgeStyle;rounded=0;orthogonalLoop=1;jettySize=auto;html=1;" edge="1" parent="1" source="UY8l5aNotNg1YHG4aXhA-39" target="UY8l5aNotNg1YHG4aXhA-44">
          <mxGeometry relative="1" as="geometry" />
        </mxCell>
        <mxCell id="UY8l5aNotNg1YHG4aXhA-39" value="BCryptAdapter" style="rounded=0;whiteSpace=wrap;html=1;" vertex="1" parent="1">
          <mxGeometry x="240" y="-127.5" width="110" height="55" as="geometry" />
        </mxCell>
        <mxCell id="UY8l5aNotNg1YHG4aXhA-42" style="edgeStyle=orthogonalEdgeStyle;rounded=0;orthogonalLoop=1;jettySize=auto;html=1;exitX=0.976;exitY=0.532;exitDx=0;exitDy=0;exitPerimeter=0;" edge="1" parent="1" source="UY8l5aNotNg1YHG4aXhA-30" target="UY8l5aNotNg1YHG4aXhA-24">
          <mxGeometry relative="1" as="geometry" />
        </mxCell>
        <mxCell id="UY8l5aNotNg1YHG4aXhA-43" style="edgeStyle=orthogonalEdgeStyle;rounded=0;orthogonalLoop=1;jettySize=auto;html=1;entryX=0.981;entryY=0.433;entryDx=0;entryDy=0;entryPerimeter=0;" edge="1" parent="1" source="UY8l5aNotNg1YHG4aXhA-1" target="UY8l5aNotNg1YHG4aXhA-24">
          <mxGeometry relative="1" as="geometry" />
        </mxCell>
        <mxCell id="UY8l5aNotNg1YHG4aXhA-44" value="InterfaceBCrypt" style="rounded=0;whiteSpace=wrap;html=1;dashed=1;" vertex="1" parent="1">
          <mxGeometry x="232.5" y="120" width="125" height="80" as="geometry" />
        </mxCell>
        <mxCell id="UY8l5aNotNg1YHG4aXhA-49" style="edgeStyle=orthogonalEdgeStyle;rounded=0;orthogonalLoop=1;jettySize=auto;html=1;" edge="1" parent="1" source="UY8l5aNotNg1YHG4aXhA-47" target="UY8l5aNotNg1YHG4aXhA-48">
          <mxGeometry relative="1" as="geometry" />
        </mxCell>
        <mxCell id="UY8l5aNotNg1YHG4aXhA-51" style="edgeStyle=orthogonalEdgeStyle;rounded=0;orthogonalLoop=1;jettySize=auto;html=1;" edge="1" parent="1" source="UY8l5aNotNg1YHG4aXhA-47" target="UY8l5aNotNg1YHG4aXhA-5">
          <mxGeometry relative="1" as="geometry" />
        </mxCell>
        <mxCell id="UY8l5aNotNg1YHG4aXhA-47" value="AddUserMongo" style="rounded=0;whiteSpace=wrap;html=1;" vertex="1" parent="1">
          <mxGeometry x="487.5" y="-127.5" width="110" height="55" as="geometry" />
        </mxCell>
        <mxCell id="UY8l5aNotNg1YHG4aXhA-48" value="InterfaceAddUserMongo" style="rounded=0;whiteSpace=wrap;html=1;dashed=1;" vertex="1" parent="1">
          <mxGeometry x="480" y="110" width="125" height="80" as="geometry" />
        </mxCell>
      </root>
    </mxGraphModel>
  </diagram>
  <diagram id="lMsnXr5Ur_c9voR0DR0y" name="PÃ¡gina-2">
    <mxGraphModel dx="1434" dy="788" grid="1" gridSize="10" guides="1" tooltips="1" connect="1" arrows="1" fold="1" page="1" pageScale="1" pageWidth="827" pageHeight="1169" math="0" shadow="0">
      <root>
        <mxCell id="0" />
        <mxCell id="1" parent="0" />
      </root>
    </mxGraphModel>
  </diagram>
</mxfile>
